<svg width="594" height="25" viewBox="0 0 594 25" fill="none" xmlns="http://www.w3.org/2000/svg">
<path d="M7.358 24L0.234 5.8H2.366L8.606 22.076L14.872 5.8H16.926L9.75 24H7.358ZM19.4261 24V5.8H21.4281V24H19.4261ZM22.0781 0.131999H24.6521L20.9081 3.304H19.1661L22.0781 0.131999ZM26.0288 24V5.8H28.0308V14.432L36.8708 5.8H39.4188L30.1368 14.744L39.6268 24H36.8968L28.0308 15.29V24H26.0288ZM56.718 16.2C56.718 17.4307 56.536 18.5487 56.172 19.554C55.808 20.542 55.2967 21.3827 54.638 22.076C53.9793 22.7693 53.1733 23.3067 52.22 23.688C51.2667 24.0693 50.2093 24.26 49.048 24.26C46.7253 24.26 44.8707 23.5407 43.484 22.102C42.0973 20.646 41.404 18.6787 41.404 16.2V5.8H44.524V16.2C44.524 17.7947 44.94 19.0687 45.772 20.022C46.604 20.9753 47.7047 21.452 49.074 21.452C50.4433 21.452 51.5353 20.9753 52.35 20.022C53.182 19.0687 53.598 17.7947 53.598 16.2V5.8H56.718V16.2ZM60.7094 24V5.8H68.7954C70.5807 5.8 72.0367 6.31133 73.1634 7.334C74.3074 8.35667 74.8794 9.68267 74.8794 11.312C74.8794 12.4907 74.5501 13.522 73.8914 14.406C73.2501 15.29 72.3834 15.9227 71.2914 16.304L75.1134 24H71.6554L68.1454 16.72H63.8294V24H60.7094ZM68.5354 8.426H63.8294V14.224H68.5354C69.4887 14.224 70.2601 13.964 70.8494 13.444C71.4387 12.9067 71.7334 12.2047 71.7334 11.338C71.7334 10.4713 71.4387 9.76933 70.8494 9.232C70.2601 8.69467 69.4887 8.426 68.5354 8.426ZM84.3765 24V5.8H86.3785V22.232H96.6485V24H84.3765ZM100.117 24V5.8H102.119V24H100.117ZM105.134 21.166L106.356 19.71C107.448 20.7327 108.471 21.4607 109.424 21.894C110.395 22.3273 111.47 22.544 112.648 22.544C114.052 22.544 115.214 22.1973 116.132 21.504C117.051 20.7933 117.51 19.918 117.51 18.878C117.51 17.9767 117.198 17.2833 116.574 16.798C115.968 16.3127 114.928 15.94 113.454 15.68L110.516 15.186C108.852 14.8913 107.63 14.3887 106.85 13.678C106.088 12.95 105.706 11.9793 105.706 10.766C105.706 9.24067 106.287 7.99267 107.448 7.022C108.61 6.05133 110.109 5.566 111.946 5.566C113.298 5.566 114.555 5.75667 115.716 6.138C116.878 6.502 118.022 7.08267 119.148 7.88L118.108 9.44C117.172 8.74667 116.176 8.20933 115.118 7.828C114.078 7.44667 113.03 7.256 111.972 7.256C110.707 7.256 109.667 7.57667 108.852 8.218C108.038 8.842 107.63 9.622 107.63 10.558C107.63 11.3553 107.899 11.9793 108.436 12.43C108.974 12.8807 109.849 13.2013 111.062 13.392L113.974 13.886C115.898 14.2327 117.302 14.796 118.186 15.576C119.07 16.356 119.512 17.422 119.512 18.774C119.512 19.554 119.339 20.282 118.992 20.958C118.646 21.634 118.16 22.2147 117.536 22.7C116.93 23.1853 116.202 23.5667 115.352 23.844C114.503 24.1213 113.584 24.26 112.596 24.26C111.175 24.26 109.849 24.0087 108.618 23.506C107.405 22.986 106.244 22.206 105.134 21.166ZM120.953 7.568V5.8H135.513V7.568H129.247V24H127.245V7.568H120.953ZM133.687 24L140.889 5.8H143.281L150.379 24H148.221L146.063 18.28H137.951L135.793 24H133.687ZM138.575 16.694H145.465L142.007 7.594L138.575 16.694ZM151.726 21.166L152.948 19.71C154.04 20.7327 155.063 21.4607 156.016 21.894C156.987 22.3273 158.061 22.544 159.24 22.544C160.644 22.544 161.805 22.1973 162.724 21.504C163.643 20.7933 164.102 19.918 164.102 18.878C164.102 17.9767 163.79 17.2833 163.166 16.798C162.559 16.3127 161.519 15.94 160.046 15.68L157.108 15.186C155.444 14.8913 154.222 14.3887 153.442 13.678C152.679 12.95 152.298 11.9793 152.298 10.766C152.298 9.24067 152.879 7.99267 154.04 7.022C155.201 6.05133 156.701 5.566 158.538 5.566C159.89 5.566 161.147 5.75667 162.308 6.138C163.469 6.502 164.613 7.08267 165.74 7.88L164.7 9.44C163.764 8.74667 162.767 8.20933 161.71 7.828C160.67 7.44667 159.621 7.256 158.564 7.256C157.299 7.256 156.259 7.57667 155.444 8.218C154.629 8.842 154.222 9.622 154.222 10.558C154.222 11.3553 154.491 11.9793 155.028 12.43C155.565 12.8807 156.441 13.2013 157.654 13.392L160.566 13.886C162.49 14.2327 163.894 14.796 164.778 15.576C165.662 16.356 166.104 17.422 166.104 18.774C166.104 19.554 165.931 20.282 165.584 20.958C165.237 21.634 164.752 22.2147 164.128 22.7C163.521 23.1853 162.793 23.5667 161.944 23.844C161.095 24.1213 160.176 24.26 159.188 24.26C157.767 24.26 156.441 24.0087 155.21 23.506C153.997 22.986 152.835 22.206 151.726 21.166ZM167.177 24L174.379 5.8H176.771L183.869 24H181.711L179.553 18.28H171.441L169.283 24H167.177ZM172.065 16.694H178.955L175.497 7.594L172.065 16.694ZM186.421 24V5.8H198.849V7.542H188.423V14.068H195.547V15.81H188.423V24H186.421ZM202.291 5.8H204.371L215.031 20.88L214.979 5.8H216.877V24H215.057L204.137 8.582L204.189 24H202.291V5.8ZM227.58 24V5.8H235.042C236.775 5.8 238.17 6.28533 239.228 7.256C240.302 8.22667 240.84 9.492 240.84 11.052C240.84 12.248 240.493 13.288 239.8 14.172C239.124 15.0387 238.205 15.6367 237.044 15.966L240.918 24H238.708L235.016 16.226H229.582V24H227.58ZM234.886 7.568H229.582V14.562H234.886C236.082 14.562 237.035 14.2413 237.746 13.6C238.474 12.9587 238.838 12.118 238.838 11.078C238.838 10.0207 238.474 9.17133 237.746 8.53C237.035 7.88867 236.082 7.568 234.886 7.568ZM244.414 24V5.8H256.842V7.542H246.416V13.938H253.644V15.68H246.416V22.258H256.946V24H244.414ZM265.581 24V16.564L258.509 5.8H260.849L266.647 14.822L272.471 5.8H274.681L267.583 16.616V24H265.581ZM277.32 24V5.8H279.322V14.432L288.162 5.8H290.71L281.428 14.744L290.918 24H288.188L279.322 15.29V24H277.32ZM304.449 17.136C304.449 19.32 303.842 21.062 302.629 22.362C301.415 23.6447 299.786 24.286 297.741 24.286C296.198 24.286 294.855 23.8787 293.711 23.064C292.584 22.232 291.769 21.088 291.267 19.632L293.087 18.904C293.52 20.0653 294.127 20.9493 294.907 21.556C295.687 22.1627 296.64 22.466 297.767 22.466C299.171 22.466 300.297 21.9807 301.147 21.01C302.013 20.0393 302.447 18.7393 302.447 17.11V5.8H304.449V17.136ZM306.064 24L313.266 5.8H315.658L322.756 24H320.598L318.44 18.28H310.328L308.17 24H306.064ZM310.952 16.694H317.842L314.384 7.594L310.952 16.694ZM327.712 24L320.588 5.8H322.72L328.96 22.076L335.226 5.8H337.28L330.104 24H327.712ZM339.78 24V5.8H341.782V24H339.78ZM342.432 0.131999H345.006L341.262 3.304H339.52L342.432 0.131999ZM346.382 24V5.8H348.384V14.432L357.224 5.8H359.772L350.49 14.744L359.98 24H357.25L348.384 15.29V24H346.382ZM376.413 16.5C376.413 17.6833 376.238 18.7583 375.888 19.725C375.538 20.675 375.046 21.4833 374.413 22.15C373.779 22.8167 373.004 23.3333 372.088 23.7C371.171 24.0667 370.154 24.25 369.038 24.25C366.804 24.25 365.021 23.5583 363.688 22.175C362.354 20.775 361.688 18.8833 361.688 16.5V6.5H364.688V16.5C364.688 18.0333 365.088 19.2583 365.888 20.175C366.688 21.0917 367.746 21.55 369.063 21.55C370.379 21.55 371.429 21.0917 372.213 20.175C373.013 19.2583 373.413 18.0333 373.413 16.5V6.5H376.413V16.5ZM380.25 24V6.5H388.025C389.742 6.5 391.142 6.99167 392.225 7.975C393.325 8.95833 393.875 10.2333 393.875 11.8C393.875 12.9333 393.559 13.925 392.925 14.775C392.309 15.625 391.475 16.2333 390.425 16.6L394.1 24H390.775L387.4 17H383.25V24H380.25ZM387.775 9.025H383.25V14.6H387.775C388.692 14.6 389.434 14.35 390 13.85C390.567 13.3333 390.85 12.6583 390.85 11.825C390.85 10.9917 390.567 10.3167 390 9.8C389.434 9.28333 388.692 9.025 387.775 9.025ZM403.33 24V5.8H405.332V22.232H415.602V24H403.33ZM419.071 24V5.8H421.073V24H419.071ZM424.087 21.166L425.309 19.71C426.401 20.7327 427.424 21.4607 428.377 21.894C429.348 22.3273 430.423 22.544 431.601 22.544C433.005 22.544 434.167 22.1973 435.085 21.504C436.004 20.7933 436.463 19.918 436.463 18.878C436.463 17.9767 436.151 17.2833 435.527 16.798C434.921 16.3127 433.881 15.94 432.407 15.68L429.469 15.186C427.805 14.8913 426.583 14.3887 425.803 13.678C425.041 12.95 424.659 11.9793 424.659 10.766C424.659 9.24067 425.24 7.99267 426.401 7.022C427.563 6.05133 429.062 5.566 430.899 5.566C432.251 5.566 433.508 5.75667 434.669 6.138C435.831 6.502 436.975 7.08267 438.101 7.88L437.061 9.44C436.125 8.74667 435.129 8.20933 434.071 7.828C433.031 7.44667 431.983 7.256 430.925 7.256C429.66 7.256 428.62 7.57667 427.805 8.218C426.991 8.842 426.583 9.622 426.583 10.558C426.583 11.3553 426.852 11.9793 427.389 12.43C427.927 12.8807 428.802 13.2013 430.015 13.392L432.927 13.886C434.851 14.2327 436.255 14.796 437.139 15.576C438.023 16.356 438.465 17.422 438.465 18.774C438.465 19.554 438.292 20.282 437.945 20.958C437.599 21.634 437.113 22.2147 436.489 22.7C435.883 23.1853 435.155 23.5667 434.305 23.844C433.456 24.1213 432.537 24.26 431.549 24.26C430.128 24.26 428.802 24.0087 427.571 23.506C426.358 22.986 425.197 22.206 424.087 21.166ZM439.906 7.568V5.8H454.466V7.568H448.2V24H446.198V7.568H439.906ZM452.64 24L459.842 5.8H462.234L469.332 24H467.174L465.016 18.28H456.904L454.746 24H452.64ZM457.528 16.694H464.418L460.96 7.594L457.528 16.694ZM470.679 21.166L471.901 19.71C472.993 20.7327 474.016 21.4607 474.969 21.894C475.94 22.3273 477.015 22.544 478.193 22.544C479.597 22.544 480.759 22.1973 481.677 21.504C482.596 20.7933 483.055 19.918 483.055 18.878C483.055 17.9767 482.743 17.2833 482.119 16.798C481.513 16.3127 480.473 15.94 478.999 15.68L476.061 15.186C474.397 14.8913 473.175 14.3887 472.395 13.678C471.633 12.95 471.251 11.9793 471.251 10.766C471.251 9.24067 471.832 7.99267 472.993 7.022C474.155 6.05133 475.654 5.566 477.491 5.566C478.843 5.566 480.1 5.75667 481.261 6.138C482.423 6.502 483.567 7.08267 484.693 7.88L483.653 9.44C482.717 8.74667 481.721 8.20933 480.663 7.828C479.623 7.44667 478.575 7.256 477.517 7.256C476.252 7.256 475.212 7.57667 474.397 8.218C473.583 8.842 473.175 9.622 473.175 10.558C473.175 11.3553 473.444 11.9793 473.981 12.43C474.519 12.8807 475.394 13.2013 476.607 13.392L479.519 13.886C481.443 14.2327 482.847 14.796 483.731 15.576C484.615 16.356 485.057 17.422 485.057 18.774C485.057 19.554 484.884 20.282 484.537 20.958C484.191 21.634 483.705 22.2147 483.081 22.7C482.475 23.1853 481.747 23.5667 480.897 23.844C480.048 24.1213 479.129 24.26 478.141 24.26C476.72 24.26 475.394 24.0087 474.163 23.506C472.95 22.986 471.789 22.206 470.679 21.166ZM486.13 24L493.332 5.8H495.724L502.822 24H500.664L498.506 18.28H490.394L488.236 24H486.13ZM491.018 16.694H497.908L494.45 7.594L491.018 16.694ZM505.375 24V5.8H517.803V7.542H507.377V14.068H514.501V15.81H507.377V24H505.375ZM521.244 5.8H523.324L533.984 20.88L533.932 5.8H535.83V24H534.01L523.09 8.582L523.142 24H521.244V5.8ZM546.533 24V5.8H553.995C555.728 5.8 557.123 6.28533 558.181 7.256C559.255 8.22667 559.793 9.492 559.793 11.052C559.793 12.248 559.446 13.288 558.753 14.172C558.077 15.0387 557.158 15.6367 555.997 15.966L559.871 24H557.661L553.969 16.226H548.535V24H546.533ZM553.839 7.568H548.535V14.562H553.839C555.035 14.562 555.988 14.2413 556.699 13.6C557.427 12.9587 557.791 12.118 557.791 11.078C557.791 10.0207 557.427 9.17133 556.699 8.53C555.988 7.88867 555.035 7.568 553.839 7.568ZM563.367 24V5.8H575.795V7.542H565.369V13.938H572.597V15.68H565.369V22.258H575.899V24H563.367ZM584.534 24V16.564L577.462 5.8H579.802L585.6 14.822L591.424 5.8H593.634L586.536 16.616V24H584.534Z" fill="black"/>
</svg>
